<svg width="285" height="54" viewBox="0 0 285 54" fill="none" xmlns="http://www.w3.org/2000/svg">
<g clip-path="url(#clip0_2494_202)">
<path d="M106.462 9.725L97.1918 41H91.3868L84.8168 17.33L77.8418 41L72.0818 41.045L63.2168 9.725H68.6618L75.1418 35.195L82.1618 9.725H87.9218L94.4468 35.06L100.972 9.725H106.462ZM108.983 28.49C108.983 26 109.493 23.795 110.513 21.875C111.563 19.955 112.973 18.47 114.743 17.42C116.543 16.34 118.523 15.8 120.683 15.8C122.633 15.8 124.328 16.19 125.768 16.97C127.238 17.72 128.408 18.665 129.278 19.805V16.205H134.453V41H129.278V37.31C128.408 38.48 127.223 39.455 125.723 40.235C124.223 41.015 122.513 41.405 120.593 41.405C118.463 41.405 116.513 40.865 114.743 39.785C112.973 38.675 111.563 37.145 110.513 35.195C109.493 33.215 108.983 30.98 108.983 28.49ZM129.278 28.58C129.278 26.87 128.918 25.385 128.198 24.125C127.508 22.865 126.593 21.905 125.453 21.245C124.313 20.585 123.083 20.255 121.763 20.255C120.443 20.255 119.213 20.585 118.073 21.245C116.933 21.875 116.003 22.82 115.283 24.08C114.593 25.31 114.248 26.78 114.248 28.49C114.248 30.2 114.593 31.7 115.283 32.99C116.003 34.28 116.933 35.27 118.073 35.96C119.243 36.62 120.473 36.95 121.763 36.95C123.083 36.95 124.313 36.62 125.453 35.96C126.593 35.3 127.508 34.34 128.198 33.08C128.918 31.79 129.278 30.29 129.278 28.58ZM153.701 15.8C155.651 15.8 157.391 16.205 158.921 17.015C160.481 17.825 161.696 19.025 162.566 20.615C163.436 22.205 163.871 24.125 163.871 26.375V41H158.786V27.14C158.786 24.92 158.231 23.225 157.121 22.055C156.011 20.855 154.496 20.255 152.576 20.255C150.656 20.255 149.126 20.855 147.986 22.055C146.876 23.225 146.321 24.92 146.321 27.14V41H141.191V16.205H146.321V19.04C147.161 18.02 148.226 17.225 149.516 16.655C150.836 16.085 152.231 15.8 153.701 15.8ZM168.705 28.49C168.705 26 169.215 23.795 170.235 21.875C171.285 19.955 172.695 18.47 174.465 17.42C176.265 16.34 178.26 15.8 180.45 15.8C182.07 15.8 183.66 16.16 185.22 16.88C186.81 17.57 188.07 18.5 189 19.67V7.7H194.175V41H189V37.265C188.16 38.465 186.99 39.455 185.49 40.235C184.02 41.015 182.325 41.405 180.405 41.405C178.245 41.405 176.265 40.865 174.465 39.785C172.695 38.675 171.285 37.145 170.235 35.195C169.215 33.215 168.705 30.98 168.705 28.49ZM189 28.58C189 26.87 188.64 25.385 187.92 24.125C187.23 22.865 186.315 21.905 185.175 21.245C184.035 20.585 182.805 20.255 181.485 20.255C180.165 20.255 178.935 20.585 177.795 21.245C176.655 21.875 175.725 22.82 175.005 24.08C174.315 25.31 173.97 26.78 173.97 28.49C173.97 30.2 174.315 31.7 175.005 32.99C175.725 34.28 176.655 35.27 177.795 35.96C178.965 36.62 180.195 36.95 181.485 36.95C182.805 36.95 184.035 36.62 185.175 35.96C186.315 35.3 187.23 34.34 187.92 33.08C188.64 31.79 189 30.29 189 28.58ZM223.638 27.995C223.638 28.925 223.578 29.765 223.458 30.515H204.513C204.663 32.495 205.398 34.085 206.718 35.285C208.038 36.485 209.658 37.085 211.578 37.085C214.338 37.085 216.288 35.93 217.428 33.62H222.963C222.213 35.9 220.848 37.775 218.868 39.245C216.918 40.685 214.488 41.405 211.578 41.405C209.208 41.405 207.078 40.88 205.188 39.83C203.328 38.75 201.858 37.25 200.778 35.33C199.728 33.38 199.203 31.13 199.203 28.58C199.203 26.03 199.713 23.795 200.733 21.875C201.783 19.925 203.238 18.425 205.098 17.375C206.988 16.325 209.148 15.8 211.578 15.8C213.918 15.8 216.003 16.31 217.833 17.33C219.663 18.35 221.088 19.79 222.108 21.65C223.128 23.48 223.638 25.595 223.638 27.995ZM218.283 26.375C218.253 24.485 217.578 22.97 216.258 21.83C214.938 20.69 213.303 20.12 211.353 20.12C209.583 20.12 208.068 20.69 206.808 21.83C205.548 22.94 204.798 24.455 204.558 26.375H218.283ZM233.816 19.805C234.566 18.545 235.556 17.57 236.786 16.88C238.046 16.16 239.531 15.8 241.241 15.8V21.11H239.936C237.926 21.11 236.396 21.62 235.346 22.64C234.326 23.66 233.816 25.43 233.816 27.95V41H228.686V16.205H233.816V19.805ZM251.087 7.7V41H245.957V7.7H251.087ZM280.142 16.205L264.932 52.655H259.622L264.662 40.595L254.897 16.205H260.612L267.587 35.105L274.832 16.205H280.142Z" fill="white"/>
<mask id="mask0_2494_202" style="mask-type:luminance" maskUnits="userSpaceOnUse" x="9" y="4" width="45" height="27">
<path d="M9.45459 4H53.7924V30.5207H9.45459V4Z" fill="white"/>
</mask>
<g mask="url(#mask0_2494_202)">
<path d="M14.9413 28.1631C18.5351 30.3696 26.199 31.3071 34.6213 28.0867L26.3438 26.2635C26.6409 25.7336 27.174 25.387 27.7682 25.3397L41.352 24.2799C41.352 24.2799 44.4247 22.075 47.6243 20.3938C50.5448 18.8576 52.1826 19.2699 52.1826 19.2699C52.7873 19.1554 53.2099 19.1569 53.4652 19.2577C50.6717 10.4057 42.5524 4 32.967 4C23.9743 4 16.2717 9.6407 13.0467 17.6482C12.5316 15.6402 12.5958 12.91 13.9962 9.25284C13.9962 9.25284 3.55829 21.171 14.9413 28.1631Z" fill="#EC608A"/>
</g>
<mask id="mask1_2494_202" style="mask-type:luminance" maskUnits="userSpaceOnUse" x="3" y="19" width="52" height="29">
<path d="M3 19.9662H54.5567V47.9773H3V19.9662Z" fill="white"/>
</mask>
<g mask="url(#mask1_2494_202)">
<path d="M53.6817 19.9983C53.174 21.2687 50.1148 23.8982 45.0891 27.001C43.8693 27.7538 39.4006 30.2917 34.787 32.6982C27.8085 36.337 14.2321 42.0984 3.00586 37.4548C3.00586 37.4548 13.1258 46.0869 33.0387 37.1891C25.5017 42.7657 20.058 43.6559 20.058 43.6559C23.6548 46.4167 28.122 48.0567 32.967 48.0567C44.8622 48.0567 54.5058 38.1939 54.5058 26.0283C54.5058 23.9364 54.2147 21.9162 53.6817 19.9983ZM44.6681 37.5143L40.0232 30.9514L44.5427 28.2868L45.3892 35.5018C45.4714 36.2515 45.2041 36.9967 44.6681 37.5143Z" fill="#4C44FA"/>
</g>
<mask id="mask2_2494_202" style="mask-type:luminance" maskUnits="userSpaceOnUse" x="12" y="4" width="42" height="17">
<path d="M12.8945 4H53.7923V20.748H12.8945V4Z" fill="white"/>
</mask>
<g mask="url(#mask2_2494_202)">
<path d="M47.6469 20.3815C50.5539 18.8607 52.1829 19.2699 52.1829 19.2699C52.7875 19.1554 53.2101 19.1569 53.4654 19.2577C50.6719 10.4057 42.5526 4 32.9672 4C23.9745 4 16.2719 9.6407 13.0469 17.6482C19.0639 8.29542 31.3562 5.70107 40.5012 11.8533C43.7426 14.0338 46.1524 17.0191 47.6469 20.3815Z" fill="#4C44FA"/>
</g>
<mask id="mask3_2494_202" style="mask-type:luminance" maskUnits="userSpaceOnUse" x="36" y="19" width="19" height="29">
<path d="M36.5923 19.9662H54.5567V47.9773H36.5923V19.9662Z" fill="white"/>
</mask>
<g mask="url(#mask3_2494_202)">
<path d="M53.682 19.9983C53.3222 20.8977 51.6798 22.4811 48.967 24.4311C50.0763 29.5862 49.2282 35.175 46.1675 39.9331C43.792 43.6269 40.4371 46.267 36.6836 47.7299C46.808 45.9281 54.5062 36.899 54.5062 26.0283C54.5062 23.9364 54.2151 21.9162 53.682 19.9983Z" fill="#4C44FA"/>
</g>
<mask id="mask4_2494_202" style="mask-type:luminance" maskUnits="userSpaceOnUse" x="15" y="9" width="17" height="22">
<path d="M15.188 9.02074H31.2383V30.6536H15.188V9.02074Z" fill="white"/>
</mask>
<g mask="url(#mask4_2494_202)">
<path d="M30.0227 19.2012C30.0227 19.2012 28.0384 15.3776 25.8272 15.1027C25.6704 15.0554 25.5136 15.0523 25.3554 15.0951C25.1971 15.1379 25.0612 15.2203 24.9493 15.3409C24.9493 15.3409 26.1586 23.6203 22.9889 31.0201C22.959 31.0857 22.9322 31.1499 22.9023 31.217L20.6418 31.1697C20.6105 31.104 20.5851 31.0369 20.5552 30.9712C19.9819 29.5358 19.5862 28.0516 19.3682 26.517C19.1517 24.9808 19.1204 23.4431 19.2742 21.8994C18.4067 22.2826 18.5067 24.4952 18.5067 24.4952C17.0346 22.5667 18.7561 21.765 18.7561 21.765C17.4482 21.9436 16.306 24.2234 16.306 24.2234C16.0731 20.9343 18.7232 21.1069 18.7232 21.1069C17.7527 20.0074 15.437 21.2565 15.437 21.2565C17.2287 18.4529 19.525 20.9328 19.525 20.9328C19.4324 20.6075 19.2995 20.3021 19.1264 20.0135C18.9532 19.7249 18.7456 19.4669 18.5052 19.2348C18.2634 19.0042 17.9961 18.8103 17.7035 18.6545C17.4108 18.4972 17.1018 18.3827 16.7793 18.3109C20.0625 17.636 19.9864 20.4899 19.9864 20.4899C21.684 18.3858 23.5607 20.4105 23.5607 20.4105C23.3009 20.3296 23.0352 20.2823 22.7649 20.267C22.4932 20.2517 22.2244 20.2701 21.9572 20.3205C21.6914 20.3724 21.4346 20.4548 21.1868 20.5678C20.9389 20.6824 20.709 20.8259 20.4955 20.9969C23.0591 20.2594 23.3636 23.4325 23.3636 23.4325C22.7709 22.0444 20.8374 21.6138 20.8374 21.6138C22.314 22.4277 21.3928 24.2509 21.3928 24.2509C21.5152 22.6247 19.8654 21.7772 19.8654 21.7772C19.6922 23.2477 19.7295 24.7136 19.9804 26.1734C20.2312 27.6347 20.6836 29.0258 21.3361 30.3497C21.9318 29.1892 22.435 27.9905 22.8485 26.7506C23.2621 25.5107 23.5801 24.2463 23.8026 22.956C24.0251 21.6673 24.149 20.3678 24.1744 19.0576C24.1998 17.749 24.1281 16.445 23.9564 15.147C23.9564 15.147 21.1883 16.6145 21.4331 19.3676C21.4331 19.3676 19.8311 16.3152 22.3051 14.8996C22.1095 14.9439 19.0263 15.7486 18.0782 18.03C18.0782 18.03 18.5247 12.6626 22.8724 13.8491C22.5066 13.5651 22.114 13.3299 21.6929 13.1421C21.2719 12.9543 20.8359 12.8214 20.3835 12.7405C19.9311 12.6611 19.4757 12.6366 19.0174 12.6687C18.5605 12.7008 18.1126 12.7863 17.6751 12.9283C17.6751 12.9283 20.8016 9.45593 23.7145 12.9756C23.7145 12.9756 23.5204 8.15341 29.0865 9.21314C29.0865 9.21314 25.863 9.68345 24.5088 13.7071C24.6596 13.5483 28.3938 9.57045 31.4247 14.1606C31.2589 14.0812 27.4472 12.145 25.866 13.9911C25.8645 13.9911 30.3437 13.6307 30.0227 19.2012Z" fill="white"/>
</g>
<mask id="mask5_2494_202" style="mask-type:luminance" maskUnits="userSpaceOnUse" x="14" y="8" width="18" height="16">
<path d="M14.6118 8.07858H31.2385V23.8753H14.6118V8.07858Z" fill="white"/>
</mask>
<g mask="url(#mask5_2494_202)">
<path d="M22.7237 2.67457C23.4001 2.66999 24.0764 2.69748 24.7513 2.75856C25.4261 2.81964 26.0965 2.91278 26.7609 3.03952C27.4268 3.16626 28.0853 3.32507 28.7362 3.51442C29.3887 3.70529 30.0292 3.9267 30.6593 4.18018C31.2894 4.43214 31.9075 4.71616 32.5107 5.02919C33.1154 5.34222 33.7036 5.68427 34.2755 6.0538C34.8473 6.42486 35.4012 6.82187 35.9373 7.24638C36.4718 7.66935 36.9869 8.11981 37.4796 8.59318C37.9738 9.06807 38.4426 9.56587 38.8905 10.085C39.3369 10.6058 39.7595 11.1463 40.1566 11.7082C40.5523 12.2686 40.9226 12.8489 41.266 13.446C41.6079 14.043 41.9229 14.6553 42.2081 15.2829C42.4933 15.912 42.7501 16.5518 42.9755 17.2054C43.2025 17.8574 43.3966 18.5201 43.5623 19.192C43.7265 19.8639 43.8594 20.5419 43.9594 21.226C44.061 21.9116 44.1311 22.6002 44.167 23.292C44.1819 22.9453 44.1894 22.5957 44.1879 22.2445C44.1715 21.5375 44.1237 20.832 44.0401 20.1296C43.9579 19.4272 43.8415 18.7309 43.6937 18.0407C43.5444 17.3489 43.3622 16.6679 43.1487 15.9945C42.9352 15.3226 42.6903 14.6614 42.4141 14.0125C42.1364 13.365 41.8303 12.7313 41.4929 12.1129C41.157 11.496 40.7912 10.8959 40.397 10.3141C40.0028 9.73231 39.5833 9.17191 39.1354 8.63288C38.689 8.09233 38.2172 7.57621 37.72 7.08299C37.2243 6.5913 36.7062 6.12404 36.1657 5.68274C35.6237 5.24144 35.0638 4.82763 34.4845 4.44282C33.9037 4.0565 33.3065 3.70071 32.6928 3.37546C32.0792 3.04868 31.4521 2.75398 30.8101 2.49133C30.1681 2.22716 29.5141 1.99659 28.8512 1.79808C28.1868 1.59804 27.5149 1.43313 26.8356 1.30181C26.1562 1.17049 25.4709 1.07276 24.7826 1.00863C24.0943 0.944494 23.4031 0.915481 22.7118 0.920062C22.0205 0.924643 21.3307 0.964345 20.6424 1.03764C19.9541 1.11094 19.2718 1.21935 18.5939 1.36136C17.9161 1.50184 17.2472 1.67745 16.5858 1.88512C15.9243 2.09279 15.2749 2.33405 14.6358 2.60586C13.9983 2.87919 13.3742 3.18306 12.765 3.51747C12.1559 3.85188 11.5631 4.21683 10.9883 4.61079C10.415 5.00476 9.85954 5.42621 9.32503 5.87514C8.79052 6.32407 8.2784 6.79744 7.78867 7.29829C7.29895 7.79762 6.83461 8.31985 6.39416 8.86651C5.9552 9.41317 5.54163 9.97969 5.15642 10.566C4.77121 11.1539 4.41288 11.7586 4.0844 12.3816C3.75742 13.0031 3.45881 13.6414 3.19156 14.2934C2.92281 14.9455 2.6869 15.6097 2.48235 16.2861C2.27781 16.9611 2.1061 17.6467 1.96725 18.3384C1.8269 19.0317 1.7209 19.7295 1.64774 20.4335C1.57458 21.1374 1.53576 21.8429 1.52979 22.5499C1.52979 22.9011 1.54472 23.2492 1.56263 23.5958C1.58951 22.9041 1.64923 22.2154 1.7418 21.5298C1.83437 20.8427 1.9568 20.1632 2.11208 19.4882C2.26735 18.8148 2.45399 18.1491 2.67197 17.494C2.88847 16.8374 3.13631 16.193 3.41253 15.5624C3.69024 14.9302 3.99631 14.3133 4.33076 13.7101C4.6652 13.1085 5.02652 12.5236 5.41621 11.9571C5.8044 11.3906 6.21947 10.844 6.65992 10.3172C7.09888 9.79034 7.56322 9.28643 8.04996 8.80543C8.5367 8.32443 9.04433 7.86633 9.57437 7.43572C10.1029 7.00359 10.6524 6.59741 11.2197 6.22024C11.7856 5.84155 12.3694 5.49034 12.9696 5.16967C13.5683 4.84748 14.1819 4.55582 14.809 4.29471C15.4361 4.03206 16.0736 3.80149 16.7216 3.60145C17.3711 3.40142 18.0266 3.23345 18.691 3.09755C19.3554 2.96165 20.0243 2.85781 20.6976 2.78757C21.371 2.71733 22.0459 2.67915 22.7237 2.67457Z" fill="white"/>
</g>
</g>
<defs>
<clipPath id="clip0_2494_202">
<rect width="285" height="54" fill="white"/>
</clipPath>
</defs>
</svg>
